<svg xmlns="http://www.w3.org/2000/svg" height="24px" viewBox="0 -960 960 960" width="24px" fill="#ffffff"><path d="M640-162q-18.09 0-34.9-1.57-16.8-1.57-34.1-5.43 72-63 113.5-143.5Q726-393.01 726-480q0-88-41.5-168T571-791q16.89-3.62 34.1-5.31Q622.3-798 640-798q132.45 0 225.22 92.89Q958-612.22 958-479.61T865.22-254.5Q772.45-162 640-162Zm-160-43q-71-42-114.5-114.5T322-480q0-88 43.5-160.5T480-755q71 42 114.5 114.5T638-480q0 88-43.5 160.5T480-205Zm-160 43q-132.45 0-225.22-92.89Q2-347.78 2-480.39T94.78-705.5Q187.55-798 320-798q18.09 0 34.9 1.57 16.8 1.57 34.1 5.43-72 63-113.5 143.16Q234-567.67 234-480.29 234-385 274.5-304 315-223 382-167q-14.47 2.63-30.22 3.82Q336.03-162 320-162Z"/></svg>